<svg xmlns="http://www.w3.org/2000/svg" class="d-none">
    <defs>
        <!-- Icon from
    Feather Icon by Megumi Hano - https://github.com/feathericon/feathericon/blob/master/LICENSE -->
        <symbol viewBox="0 0 24 24" id="fe-users">
            <!-- Icon from Feather Icon by Megumi Hano -
        https://github.com/feathericon/feathericon/blob/master/LICENSE -->
            <path fill="currentColor" fill-rule="evenodd"
                d="M8 13a3 3 0 1 1 0-6a3 3 0 0 1 0 6m8 0a3 3 0 1 1 0-6a3 3 0 0 1 0 6m-8 2a7.98 7.98 0 0 1 6 2.708V19H2v-1.292A7.98 7.98 0 0 1 8 15m8 4v-2.048l-.5-.567a10 10 0 0 0-1.25-1.193A8 8 0 0 1 16 15a7.98 7.98 0 0 1 6 2.708V19z" />
        </symbol>
        <symbol viewBox="0 0 24 24" id="fe-user">
            <!-- Icon from Feather Icon by Megumi Hano -
        https://github.com/feathericon/feathericon/blob/master/LICENSE -->
            <path fill="currentColor"
                d="M12 12a4 4 0 1 1 0-8a4 4 0 0 1 0 8m0 3c3.186 0 6.045.571 8 3.063V20H4v-1.937C5.955 15.57 8.814 15 12 15" />
        </symbol>
        <symbol viewBox="0 0 24 24" id="fe-bar-chart"><!-- Icon
            from Feather Icon by Megumi Hano -
            https://github.com/feathericon/feathericon/blob/master/LICENSE -->
            <path fill="currentColor" fill-rule="evenodd"
                d="M5 19h15a1 1 0 0 1 0 2H4a1 1 0 0 1-1-1v-8a1 1 0 0 1 2 0zm5-4a1 1 0 0 1-2 0V6a1 1 0 1 1 2 0zm2 0V8a1 1 0 0 1 2 0v7a1 1 0 0 1-2 0m4-11a1 1 0 0 1 2 0v11a1 1 0 0 1-2 0z" />
        </symbol>
        <symbol viewBox="0 0 24 24" id="fe-layer"><!-- Icon
            from Feather Icon by Megumi Hano -
            https://github.com/feathericon/feathericon/blob/master/LICENSE -->
            <path fill="currentColor"
                d="m6 8l6 3l6-3l-6-3zm6.489-4.884l7.993 4.076c.486.248.661.81.391 1.257a.97.97 0 0 1-.39.359l-7.994 4.076a1.09 1.09 0 0 1-.978 0L3.518 8.808c-.486-.248-.661-.81-.391-1.257a.97.97 0 0 1 .39-.359l7.994-4.076c.304-.155.674-.155.978 0m0 13.766a1.07 1.07 0 0 1-.978 0l-7.993-4.147c-.486-.252-.661-.824-.391-1.278a1 1 0 0 1 .39-.365a.82.82 0 0 1 .755 0l7.24 3.755c.303.158.673.158.977 0l7.239-3.755a.82.82 0 0 1 .754 0c.486.252.661.824.391 1.278a1 1 0 0 1-.39.365zm0 4a1.07 1.07 0 0 1-.978 0l-7.993-4.147c-.486-.252-.661-.824-.391-1.278a1 1 0 0 1 .39-.365a.82.82 0 0 1 .755 0l7.24 3.755c.303.158.673.158.977 0l7.239-3.755a.82.82 0 0 1 .754 0c.486.252.661.824.391 1.278a1 1 0 0 1-.39.365z" />
        </symbol>
        <symbol viewBox="0 0 24 24" id="fe-boock"><!-- Icon
            from Feather Icon by Megumi Hano -
            https://github.com/feathericon/feathericon/blob/master/LICENSE -->
            <path fill="currentColor"
                d="m13 16.006l7-.047V5.992l-5.17.007l-1.814 1.814zm-2-8.193L9.179 6.038L4 6.003v9.956l7 .047zm-1-3.77L12 6l2-2l5.997-.008A2 2 0 0 1 22 5.989v9.97a2 2 0 0 1-1.986 2L14 18l-1.996 2L10 18l-6.014-.041a2 2 0 0 1-1.986-2V6.003a2 2 0 0 1 2-2z" />
        </symbol>
        <symbol viewBox="0 0 24 24" id="fe-layout"><!-- Icon
            from Feather Icon by Megumi Hano -
            https://github.com/feathericon/feathericon/blob/master/LICENSE -->
            <path fill="currentColor"
                d="M4 4h16a2 2 0 0 1 2 2v12a2 2 0 0 1-2 2H4a2 2 0 0 1-2-2V6a2 2 0 0 1 2-2m0 2v5h4V6zm0 7v5h4v-5zm6-7v12h10V6z" />
        </symbol>
        <symbol viewBox="0 0 24 24" id='fe-logout'><!-- Icon
            from Feather Icon by Megumi Hano -
            https://github.com/feathericon/feathericon/blob/master/LICENSE -->
            <path fill="currentColor" fill-rule="evenodd"
                d="M3 5c0-1.1.9-2 2-2h8v2H5v14h8v2H5c-1.1 0-2-.9-2-2zm14.176 6L14.64 8.464l1.414-1.414l4.95 4.95l-4.95 4.95l-1.414-1.414L17.176 13H10.59v-2z" />
        </symbol>
    </defs>
</svg>